# xmcd
#
# Track frame offsets:
#	150
#	17741
#	30887
#	47064
#	62220
#	80312
#	95986
#	114827
#	132722
#	151028
#	167167
#	193732
#
# Disc length: 3103 seconds
# Revision: 3
# Processed by: cddbd v1.5.2PL0 Copyright (c) Steve Scherf et al.
# Submitted via: dBpowerAMP V12.0
#
DISCID=970c1d0c
DTITLE=Taylor Swift - Taylor Swift
DYEAR=2006
DGENRE=Country
TTITLE0=Tim McGraw
TTITLE1=Picture To Burn
TTITLE2=Teardrops On My Guitar
TTITLE3=A Place In This World
TTITLE4=Cold As You
TTITLE5=The Outside
TTITLE6=Tied Together With A Smile
TTITLE7=Stay Beautiful
TTITLE8=Should've Said No
TTITLE9=Mary's Song
TTITLE10=Our Song
TTITLE11=DATA
EXTD=
EXTT0=
EXTT1=
EXTT2=
EXTT3=
EXTT4=
EXTT5=
EXTT6=
EXTT7=
EXTT8=
EXTT9=
EXTT10=
EXTT11=
PLAYORDER=
